<?xml version="1.0" encoding="UTF-8"?>
<!DOCTYPE svg PUBLIC "-//W3C//DTD SVG 1.1//EN" "http://www.w3.org/Graphics/SVG/1.1/DTD/svg11.dtd">
<svg xmlns="http://www.w3.org/2000/svg" version="1.1" width="179px" height="180px" style="shape-rendering:geometricPrecision; text-rendering:geometricPrecision; image-rendering:optimizeQuality; fill-rule:evenodd; clip-rule:evenodd" xmlns:xlink="http://www.w3.org/1999/xlink">
<g><path style="opacity:1" fill="#fbfcfc" d="M -0.5,-0.5 C 59.1667,-0.5 118.833,-0.5 178.5,-0.5C 178.5,59.5 178.5,119.5 178.5,179.5C 118.833,179.5 59.1667,179.5 -0.5,179.5C -0.5,119.5 -0.5,59.5 -0.5,-0.5 Z"/></g>
<g><path style="opacity:1" fill="#3bc0e5" d="M 148.5,19.5 C 146.83,19.2488 145.33,18.5822 144,17.5C 143.833,18 143.667,18.5 143.5,19C 145.59,21.7723 147.59,24.6056 149.5,27.5C 149.32,28.5539 148.987,29.5539 148.5,30.5C 149.905,33.2126 151.405,35.8793 153,38.5C 153.249,37.376 153.749,36.376 154.5,35.5C 154.833,36.1667 155.167,36.8333 155.5,37.5C 154.408,41.5291 152.408,44.8624 149.5,47.5C 151.848,32.0139 145.182,25.1806 129.5,27C 126.438,28.0608 123.938,29.8941 122,32.5C 118.586,38.9969 114.919,45.3303 111,51.5C 108.189,45.0938 107.689,38.4271 109.5,31.5C 109.833,31.5 110.167,31.5 110.5,31.5C 110.334,36.8437 110.501,42.1771 111,47.5C 111.5,46.5 112,45.5 112.5,44.5C 111.515,42.9017 111.349,41.235 112,39.5C 112.483,40.448 112.649,41.448 112.5,42.5C 113.5,42.5 114.5,42.5 115.5,42.5C 116.621,38.5264 118.454,34.8597 121,31.5C 121.334,29.1527 121.167,26.8194 120.5,24.5C 123.015,23.836 125.181,22.5026 127,20.5C 127.49,21.7932 127.657,23.1266 127.5,24.5C 132.875,24.8282 138.208,24.4948 143.5,23.5C 140.478,23.0718 137.978,21.7385 136,19.5C 134.612,20.5536 133.112,20.7203 131.5,20C 133.087,19.1376 134.754,18.4709 136.5,18C 131.806,17.4361 127.14,17.6027 122.5,18.5C 123.058,17.2101 124.058,16.3768 125.5,16C 131.5,15.3333 137.5,15.3333 143.5,16C 145.584,16.6972 147.251,17.8639 148.5,19.5 Z"/></g>
<g><path style="opacity:1" fill="#eefbfb" d="M 149.5,47.5 C 148.512,52.6405 148.179,57.9738 148.5,63.5C 147.522,63.811 146.855,64.4777 146.5,65.5C 146.273,92.7954 146.606,120.129 147.5,147.5C 147.108,150.849 146.608,154.183 146,157.5C 145.29,158.973 144.124,159.64 142.5,159.5C 142.709,158.078 143.209,156.745 144,155.5C 144.5,121.168 144.667,86.835 144.5,52.5C 144.5,49.5 144.5,46.5 144.5,43.5C 144.675,41.3792 144.341,39.3792 143.5,37.5C 138.873,30.4813 133.373,29.8147 127,35.5C 124.554,39.3944 122.388,43.3944 120.5,47.5C 119.662,47.8417 119.328,48.5084 119.5,49.5C 116.917,52.9974 114.584,56.6641 112.5,60.5C 113.363,58.1046 113.363,55.7713 112.5,53.5C 110.958,54.7468 109.458,54.7468 108,53.5C 107.333,46.8333 107.333,40.1667 108,33.5C 108.278,32.5842 108.778,31.9175 109.5,31.5C 107.689,38.4271 108.189,45.0938 111,51.5C 114.919,45.3303 118.586,38.9969 122,32.5C 123.938,29.8941 126.438,28.0608 129.5,27C 145.182,25.1806 151.848,32.0139 149.5,47.5 Z"/></g>
<g><path style="opacity:1" fill="#24c0f5" d="M 110.5,31.5 C 112.428,25.3492 116.428,21.0159 122.5,18.5C 127.14,17.6027 131.806,17.4361 136.5,18C 134.754,18.4709 133.087,19.1376 131.5,20C 133.112,20.7203 134.612,20.5536 136,19.5C 137.978,21.7385 140.478,23.0718 143.5,23.5C 138.208,24.4948 132.875,24.8282 127.5,24.5C 127.657,23.1266 127.49,21.7932 127,20.5C 125.181,22.5026 123.015,23.836 120.5,24.5C 121.167,26.8194 121.334,29.1527 121,31.5C 118.454,34.8597 116.621,38.5264 115.5,42.5C 114.5,42.5 113.5,42.5 112.5,42.5C 112.649,41.448 112.483,40.448 112,39.5C 111.349,41.235 111.515,42.9017 112.5,44.5C 112,45.5 111.5,46.5 111,47.5C 110.501,42.1771 110.334,36.8437 110.5,31.5 Z"/></g>
<g><path style="opacity:1" fill="#30c2e9" d="M 143.5,37.5 C 138.767,37.2994 133.933,37.6327 129,38.5C 126.373,41.853 123.54,44.853 120.5,47.5C 122.388,43.3944 124.554,39.3944 127,35.5C 133.373,29.8147 138.873,30.4813 143.5,37.5 Z"/></g>
<g><path style="opacity:1" fill="#26c0ef" d="M 148.5,19.5 C 155.407,22.9388 159.574,28.6055 161,36.5C 162.823,48.4792 158.656,57.4792 148.5,63.5C 148.179,57.9738 148.512,52.6405 149.5,47.5C 152.408,44.8624 154.408,41.5291 155.5,37.5C 155.167,36.8333 154.833,36.1667 154.5,35.5C 153.749,36.376 153.249,37.376 153,38.5C 151.405,35.8793 149.905,33.2126 148.5,30.5C 148.987,29.5539 149.32,28.5539 149.5,27.5C 147.59,24.6056 145.59,21.7723 143.5,19C 143.667,18.5 143.833,18 144,17.5C 145.33,18.5822 146.83,19.2488 148.5,19.5 Z"/></g>
<g><path style="opacity:1" fill="#274d71" d="M 144.5,43.5 C 144.5,46.5 144.5,49.5 144.5,52.5C 143.833,50.8333 143.167,49.1667 142.5,47.5C 142.66,45.847 143.326,44.5137 144.5,43.5 Z"/></g>
<g><path style="opacity:1" fill="#24c0f2" d="M 143.5,37.5 C 144.341,39.3792 144.675,41.3792 144.5,43.5C 143.326,44.5137 142.66,45.847 142.5,47.5C 138.771,52.5674 135.438,57.9007 132.5,63.5C 132.16,61.0088 131.16,58.8421 129.5,57C 129.706,55.1348 130.372,53.4681 131.5,52C 131.167,51.5 130.833,51 130.5,50.5C 129.833,51.5 129.167,52.5 128.5,53.5C 127.096,52.0011 126.43,52.3344 126.5,54.5C 126.819,57.276 127.819,59.776 129.5,62C 128.576,63.8114 127.743,63.6447 127,61.5C 125.599,63.1922 123.766,63.8588 121.5,63.5C 121.34,61.8008 121.506,60.1341 122,58.5C 123.185,60.5593 124.352,60.726 125.5,59C 124.047,55.4027 122.047,52.236 119.5,49.5C 119.328,48.5084 119.662,47.8417 120.5,47.5C 123.54,44.853 126.373,41.853 129,38.5C 133.933,37.6327 138.767,37.2994 143.5,37.5 Z"/></g>
<g><path style="opacity:1" fill="#25bdf4" d="M 74.5,93.5 C 73.8333,92.8333 73.1667,92.1667 72.5,91.5C 73.2385,88.1493 72.9052,84.816 71.5,81.5C 70.1279,74.8959 69.1279,68.2292 68.5,61.5C 69.8366,60.6851 70.8366,59.5185 71.5,58C 73.6178,57.3647 75.6178,56.5314 77.5,55.5C 87.0314,58.7603 86.698,60.5936 76.5,61C 72.2553,63.7307 70.7553,67.564 72,72.5C 75.3031,73.6953 76.8031,72.362 76.5,68.5C 74.5271,64.5069 75.8604,62.8402 80.5,63.5C 81.4946,70.8188 82.4946,78.1521 83.5,85.5C 84.9458,84.8291 85.6125,83.6624 85.5,82C 84.5035,75.8649 83.8368,69.6983 83.5,63.5C 84.5,63.5 85.5,63.5 86.5,63.5C 86.5548,74.3665 87.8882,85.0332 90.5,95.5C 89.5,95.5 88.5,95.5 87.5,95.5C 87.6585,92.8129 86.8252,90.4796 85,88.5C 83.6485,90.5938 83.1485,92.9272 83.5,95.5C 82.5,95.5 81.5,95.5 80.5,95.5C 80.9138,93.1917 81.2471,90.8583 81.5,88.5C 80.0531,84.0271 79.2197,79.3605 79,74.5C 78.586,74.0426 78.086,73.7093 77.5,73.5C 76.5344,75.396 76.2011,77.396 76.5,79.5C 75.0222,79.238 73.6888,79.5713 72.5,80.5C 74.5656,81.9063 76.7323,83.2396 79,84.5C 79.8127,89.6968 79.146,94.6968 77,99.5C 76.6667,96.5 76.3333,93.5 76,90.5C 74.9614,91.2438 74.4614,92.2438 74.5,93.5 Z"/></g>
<g><path style="opacity:1" fill="#1d4299" d="M 142.5,47.5 C 143.167,49.1667 143.833,50.8333 144.5,52.5C 144.667,86.835 144.5,121.168 144,155.5C 143.209,156.745 142.709,158.078 142.5,159.5C 138.762,161.417 134.762,161.917 130.5,161C 128.181,159.853 126.848,158.019 126.5,155.5C 126.249,128.153 126.582,100.82 127.5,73.5C 129.153,70.1932 130.82,66.8599 132.5,63.5C 135.438,57.9007 138.771,52.5674 142.5,47.5 Z"/></g>
<g><path style="opacity:1" fill="#24c1ee" d="M 119.5,49.5 C 122.047,52.236 124.047,55.4027 125.5,59C 124.352,60.726 123.185,60.5593 122,58.5C 121.506,60.1341 121.34,61.8008 121.5,63.5C 123.766,63.8588 125.599,63.1922 127,61.5C 127.743,63.6447 128.576,63.8114 129.5,62C 127.819,59.776 126.819,57.276 126.5,54.5C 126.43,52.3344 127.096,52.0011 128.5,53.5C 129.167,52.5 129.833,51.5 130.5,50.5C 130.833,51 131.167,51.5 131.5,52C 130.372,53.4681 129.706,55.1348 129.5,57C 131.16,58.8421 132.16,61.0088 132.5,63.5C 130.82,66.8599 129.153,70.1932 127.5,73.5C 126.599,74.2905 125.932,75.2905 125.5,76.5C 118.752,88.3324 111.752,99.9991 104.5,111.5C 103.5,111.5 102.5,111.5 101.5,111.5C 101.5,112.5 101.5,113.5 101.5,114.5C 100.5,114.5 99.5,114.5 98.5,114.5C 97.4114,118.543 96.4114,122.543 95.5,126.5C 89.2511,131.297 84.0844,130.297 80,123.5C 78.3281,113.447 76.4947,103.447 74.5,93.5C 74.4614,92.2438 74.9614,91.2438 76,90.5C 76.3333,93.5 76.6667,96.5 77,99.5C 79.146,94.6968 79.8127,89.6968 79,84.5C 76.7323,83.2396 74.5656,81.9063 72.5,80.5C 73.6888,79.5713 75.0222,79.238 76.5,79.5C 76.2011,77.396 76.5344,75.396 77.5,73.5C 78.086,73.7093 78.586,74.0426 79,74.5C 79.2197,79.3605 80.0531,84.0271 81.5,88.5C 81.2471,90.8583 80.9138,93.1917 80.5,95.5C 81.5,95.5 82.5,95.5 83.5,95.5C 83.1485,92.9272 83.6485,90.5938 85,88.5C 86.8252,90.4796 87.6585,92.8129 87.5,95.5C 88.5,95.5 89.5,95.5 90.5,95.5C 87.8882,85.0332 86.5548,74.3665 86.5,63.5C 85.5,63.5 84.5,63.5 83.5,63.5C 83.8368,69.6983 84.5035,75.8649 85.5,82C 85.6125,83.6624 84.9458,84.8291 83.5,85.5C 82.4946,78.1521 81.4946,70.8188 80.5,63.5C 75.8604,62.8402 74.5271,64.5069 76.5,68.5C 76.8031,72.362 75.3031,73.6953 72,72.5C 70.7553,67.564 72.2553,63.7307 76.5,61C 86.698,60.5936 87.0314,58.7603 77.5,55.5C 75.6178,56.5314 73.6178,57.3647 71.5,58C 70.8366,59.5185 69.8366,60.6851 68.5,61.5C 68.1667,61.5 67.8333,61.5 67.5,61.5C 71.4993,53.4449 77.3327,51.7782 85,56.5C 88.3129,68.4182 91.3129,80.4182 94,92.5C 96.3475,87.7931 99.1808,83.4597 102.5,79.5C 103.5,79.5 104.5,79.5 105.5,79.5C 105.5,78.1667 105.5,76.8333 105.5,75.5C 106.5,75.5 107.5,75.5 108.5,75.5C 110.517,71.7914 111.517,67.7914 111.5,63.5C 111.263,62.209 111.596,61.209 112.5,60.5C 114.584,56.6641 116.917,52.9974 119.5,49.5 Z"/></g>
<g><path style="opacity:1" fill="#38c5df" d="M 111.5,63.5 C 111.517,67.7914 110.517,71.7914 108.5,75.5C 107.5,75.5 106.5,75.5 105.5,75.5C 105.5,76.8333 105.5,78.1667 105.5,79.5C 104.5,79.5 103.5,79.5 102.5,79.5C 104.663,73.6768 107.663,68.3435 111.5,63.5 Z"/></g>
<g><path style="opacity:1" fill="#324e8c" d="M 127.5,73.5 C 126.582,100.82 126.249,128.153 126.5,155.5C 125.502,129.339 125.169,103.005 125.5,76.5C 125.932,75.2905 126.599,74.2905 127.5,73.5 Z"/></g>
<g><path style="opacity:1" fill="#20448e" d="M 67.5,61.5 C 67.8333,61.5 68.1667,61.5 68.5,61.5C 69.1279,68.2292 70.1279,74.8959 71.5,81.5C 69.4671,83.1631 67.6338,85.1631 66,87.5C 64.615,93.2158 61.615,97.8824 57,101.5C 57.1349,99.5753 57.3016,97.5753 57.5,95.5C 58.5,95.5 59.5,95.5 60.5,95.5C 58.6898,92.4757 57.5231,89.1423 57,85.5C 56.3333,86.1667 55.6667,86.8333 55,87.5C 50.3656,95.4799 45.6989,103.48 41,111.5C 40.5065,113.134 40.3398,114.801 40.5,116.5C 41.8221,116.33 42.9887,116.663 44,117.5C 44.7581,119.769 44.5914,121.936 43.5,124C 42.451,124.492 41.451,124.326 40.5,123.5C 39.0256,117.191 37.0256,117.191 34.5,123.5C 33.675,124.386 32.675,124.719 31.5,124.5C 41.6776,106.134 52.3443,88.1344 63.5,70.5C 64.5612,67.3777 65.8946,64.3777 67.5,61.5 Z"/></g>
<g><path style="opacity:1" fill="#1b429e" d="M 63.5,70.5 C 65.2292,69.8825 66.7292,68.8825 68,67.5C 68.4988,71.4862 68.6655,75.4862 68.5,79.5C 67.5,79.5 66.5,79.5 65.5,79.5C 64.3956,83.1096 63.3956,86.7762 62.5,90.5C 62.0516,86.8978 60.7183,83.7311 58.5,81C 60.6058,77.625 62.2725,74.125 63.5,70.5 Z"/></g>
<g><path style="opacity:1" fill="#1b429a" d="M 71.5,81.5 C 72.9052,84.816 73.2385,88.1493 72.5,91.5C 67.4666,99.2205 62.7999,107.22 58.5,115.5C 56.9826,115.511 55.8159,116.177 55,117.5C 52.3504,124.135 48.6837,130.135 44,135.5C 43.1506,138.521 42.3173,141.521 41.5,144.5C 38.7629,149.638 35.7629,154.638 32.5,159.5C 22.2832,163.814 17.1165,160.481 17,149.5C 21.8567,141.112 26.69,132.778 31.5,124.5C 32.675,124.719 33.675,124.386 34.5,123.5C 37.0256,117.191 39.0256,117.191 40.5,123.5C 41.451,124.326 42.451,124.492 43.5,124C 44.5914,121.936 44.7581,119.769 44,117.5C 42.9887,116.663 41.8221,116.33 40.5,116.5C 40.3398,114.801 40.5065,113.134 41,111.5C 45.6989,103.48 50.3656,95.4799 55,87.5C 55.6667,86.8333 56.3333,86.1667 57,85.5C 57.5231,89.1423 58.6898,92.4757 60.5,95.5C 59.5,95.5 58.5,95.5 57.5,95.5C 57.3016,97.5753 57.1349,99.5753 57,101.5C 61.615,97.8824 64.615,93.2158 66,87.5C 67.6338,85.1631 69.4671,83.1631 71.5,81.5 Z"/></g>
<g><path style="opacity:1" fill="#2dc1de" d="M 104.5,111.5 C 102.251,117.005 99.2513,122.005 95.5,126.5C 96.4114,122.543 97.4114,118.543 98.5,114.5C 99.5,114.5 100.5,114.5 101.5,114.5C 101.5,113.5 101.5,112.5 101.5,111.5C 102.5,111.5 103.5,111.5 104.5,111.5 Z"/></g>
<g><path style="opacity:1" fill="#213374" d="M 58.5,115.5 C 53.0706,125.367 47.404,135.033 41.5,144.5C 42.3173,141.521 43.1506,138.521 44,135.5C 48.6837,130.135 52.3504,124.135 55,117.5C 55.8159,116.177 56.9826,115.511 58.5,115.5 Z"/></g>
</svg>
